<svg width="200" height="200" viewBox="0 0 200 200" xmlns="http://www.w3.org/2000/svg" role="img" aria-labelledby="logo-title">
  <title id="logo-title">MIND-SPHERE</title>
  <defs>
    <linearGradient id="grad1" x1="0%" y1="0%" x2="100%" y2="100%">
      <stop offset="0%" stop-color="#3b82f6" stop-opacity="1" />
      <stop offset="100%" stop-color="#1e3a8a" stop-opacity="1" />
    </linearGradient>
  </defs>
  <circle cx="100" cy="100" r="90" fill="#111827" stroke="url(#grad1)" stroke-width="4" />
  <path d="M70 100C70 80 85 65 100 65C115 65 130 80 130 100C130 120 115 135 100 135C85 135 70 120 70 100Z" fill="none" stroke="#ffffff" stroke-width="3" />
  <path d="M85 85C85 85 90 75 100 75C110 75 115 85 115 85M85 115C85 115 90 125 100 125C110 125 115 115 115 115" fill="none" stroke="#3b82f6" stroke-width="2" stroke-linecap="round" />
  <circle cx="100" cy="100" r="5" fill="#ffffff" />
  <line x1="100" y1="65" x2="100" y2="50" stroke="#3b82f6" stroke-width="2" />
  <line x1="100" y1="135" x2="100" y2="150" stroke="#3b82f6" stroke-width="2" />
  <line x1="130" y1="100" x2="145" y2="100" stroke="#3b82f6" stroke-width="2" />
  <line x1="70" y1="100" x2="55" y2="100" stroke="#3b82f6" stroke-width="2" />
</svg>
